<svg id="visual" viewBox="0 0 900 600" width="900" height="600" xmlns="http://www.w3.org/2000/svg" xmlns:xlink="http://www.w3.org/1999/xlink" version="1.1"><rect x="0" y="0" width="900" height="600" fill="#001220"></rect><path d="M0 156L21.5 159.3C43 162.7 86 169.3 128.8 174.3C171.7 179.3 214.3 182.7 257.2 181.3C300 180 343 174 385.8 163.2C428.7 152.3 471.3 136.7 514.2 138C557 139.3 600 157.7 642.8 161C685.7 164.3 728.3 152.7 771.2 140.8C814 129 857 117 878.5 111L900 105L900 0L878.5 0C857 0 814 0 771.2 0C728.3 0 685.7 0 642.8 0C600 0 557 0 514.2 0C471.3 0 428.7 0 385.8 0C343 0 300 0 257.2 0C214.3 0 171.7 0 128.8 0C86 0 43 0 21.5 0L0 0Z" fill="#2446c7"></path><path d="M0 174L21.5 173.7C43 173.3 86 172.7 128.8 166C171.7 159.3 214.3 146.7 257.2 140.8C300 135 343 136 385.8 129.3C428.7 122.7 471.3 108.3 514.2 104.7C557 101 600 108 642.8 117C685.7 126 728.3 137 771.2 142.2C814 147.3 857 146.7 878.5 146.3L900 146L900 0L878.5 0C857 0 814 0 771.2 0C728.3 0 685.7 0 642.8 0C600 0 557 0 514.2 0C471.3 0 428.7 0 385.8 0C343 0 300 0 257.2 0C214.3 0 171.7 0 128.8 0C86 0 43 0 21.5 0L0 0Z" fill="#0066d6"></path><path d="M0 126L21.5 127.7C43 129.3 86 132.7 128.8 135.5C171.7 138.3 214.3 140.7 257.2 139.5C300 138.3 343 133.7 385.8 133C428.7 132.3 471.3 135.7 514.2 126.7C557 117.7 600 96.3 642.8 84.3C685.7 72.3 728.3 69.7 771.2 79C814 88.3 857 109.7 878.5 120.3L900 131L900 0L878.5 0C857 0 814 0 771.2 0C728.3 0 685.7 0 642.8 0C600 0 557 0 514.2 0C471.3 0 428.7 0 385.8 0C343 0 300 0 257.2 0C214.3 0 171.7 0 128.8 0C86 0 43 0 21.5 0L0 0Z" fill="#0081dd"></path><path d="M0 74L21.5 78C43 82 86 90 128.8 88.2C171.7 86.3 214.3 74.7 257.2 69.7C300 64.7 343 66.3 385.8 67.7C428.7 69 471.3 70 514.2 76.7C557 83.3 600 95.7 642.8 99.2C685.7 102.7 728.3 97.3 771.2 90.3C814 83.3 857 74.7 878.5 70.3L900 66L900 0L878.5 0C857 0 814 0 771.2 0C728.3 0 685.7 0 642.8 0C600 0 557 0 514.2 0C471.3 0 428.7 0 385.8 0C343 0 300 0 257.2 0C214.3 0 171.7 0 128.8 0C86 0 43 0 21.5 0L0 0Z" fill="#009ae0"></path><path d="M0 74L21.5 69.3C43 64.7 86 55.3 128.8 57C171.7 58.7 214.3 71.3 257.2 75.2C300 79 343 74 385.8 70.5C428.7 67 471.3 65 514.2 64.7C557 64.3 600 65.7 642.8 63.7C685.7 61.7 728.3 56.3 771.2 51.5C814 46.7 857 42.3 878.5 40.2L900 38L900 0L878.5 0C857 0 814 0 771.2 0C728.3 0 685.7 0 642.8 0C600 0 557 0 514.2 0C471.3 0 428.7 0 385.8 0C343 0 300 0 257.2 0C214.3 0 171.7 0 128.8 0C86 0 43 0 21.5 0L0 0Z" fill="#15afdc"></path><path d="M0 51L21.5 46.7C43 42.3 86 33.7 128.8 30C171.7 26.3 214.3 27.7 257.2 31.2C300 34.7 343 40.3 385.8 37.7C428.7 35 471.3 24 514.2 24.8C557 25.7 600 38.3 642.8 39.3C685.7 40.3 728.3 29.7 771.2 25.2C814 20.7 857 22.3 878.5 23.2L900 24L900 0L878.5 0C857 0 814 0 771.2 0C728.3 0 685.7 0 642.8 0C600 0 557 0 514.2 0C471.3 0 428.7 0 385.8 0C343 0 300 0 257.2 0C214.3 0 171.7 0 128.8 0C86 0 43 0 21.5 0L0 0Z" fill="#57c2d5"></path></svg>