<svg id="visual" viewBox="0 0 900 600" width="900" height="600" xmlns="http://www.w3.org/2000/svg" xmlns:xlink="http://www.w3.org/1999/xlink" version="1.1"><rect x="0" y="0" width="900" height="600" fill="#001220"></rect><path d="M0 451L21.5 454C43 457 86 463 128.8 455.2C171.7 447.3 214.3 425.7 257.2 417.8C300 410 343 416 385.8 426C428.7 436 471.3 450 514.2 462C557 474 600 484 642.8 477.3C685.7 470.7 728.3 447.3 771.2 434.2C814 421 857 418 878.5 416.5L900 415L900 601L878.5 601C857 601 814 601 771.2 601C728.3 601 685.7 601 642.8 601C600 601 557 601 514.2 601C471.3 601 428.7 601 385.8 601C343 601 300 601 257.2 601C214.3 601 171.7 601 128.8 601C86 601 43 601 21.5 601L0 601Z" fill="#57c2d5"></path><path d="M0 435L21.5 433.8C43 432.7 86 430.3 128.8 430.5C171.7 430.7 214.3 433.3 257.2 439C300 444.7 343 453.3 385.8 464.8C428.7 476.3 471.3 490.7 514.2 494.3C557 498 600 491 642.8 492.5C685.7 494 728.3 504 771.2 502.2C814 500.3 857 486.7 878.5 479.8L900 473L900 601L878.5 601C857 601 814 601 771.2 601C728.3 601 685.7 601 642.8 601C600 601 557 601 514.2 601C471.3 601 428.7 601 385.8 601C343 601 300 601 257.2 601C214.3 601 171.7 601 128.8 601C86 601 43 601 21.5 601L0 601Z" fill="#15afdc"></path><path d="M0 523L21.5 511.7C43 500.3 86 477.7 128.8 473.7C171.7 469.7 214.3 484.3 257.2 496.2C300 508 343 517 385.8 511.2C428.7 505.3 471.3 484.7 514.2 479.3C557 474 600 484 642.8 492.8C685.7 501.7 728.3 509.3 771.2 503.5C814 497.7 857 478.3 878.5 468.7L900 459L900 601L878.5 601C857 601 814 601 771.2 601C728.3 601 685.7 601 642.8 601C600 601 557 601 514.2 601C471.3 601 428.7 601 385.8 601C343 601 300 601 257.2 601C214.3 601 171.7 601 128.8 601C86 601 43 601 21.5 601L0 601Z" fill="#009ae0"></path><path d="M0 543L21.5 536C43 529 86 515 128.8 506.5C171.7 498 214.3 495 257.2 501.3C300 507.7 343 523.3 385.8 532.8C428.7 542.3 471.3 545.7 514.2 544.7C557 543.7 600 538.3 642.8 529C685.7 519.7 728.3 506.3 771.2 500.2C814 494 857 495 878.5 495.5L900 496L900 601L878.5 601C857 601 814 601 771.2 601C728.3 601 685.7 601 642.8 601C600 601 557 601 514.2 601C471.3 601 428.7 601 385.8 601C343 601 300 601 257.2 601C214.3 601 171.7 601 128.8 601C86 601 43 601 21.5 601L0 601Z" fill="#0081dd"></path><path d="M0 551L21.5 552.8C43 554.7 86 558.3 128.8 553.7C171.7 549 214.3 536 257.2 530C300 524 343 525 385.8 531.2C428.7 537.3 471.3 548.7 514.2 552.8C557 557 600 554 642.8 547.2C685.7 540.3 728.3 529.7 771.2 526.7C814 523.7 857 528.3 878.5 530.7L900 533L900 601L878.5 601C857 601 814 601 771.2 601C728.3 601 685.7 601 642.8 601C600 601 557 601 514.2 601C471.3 601 428.7 601 385.8 601C343 601 300 601 257.2 601C214.3 601 171.7 601 128.8 601C86 601 43 601 21.5 601L0 601Z" fill="#0066d6"></path><path d="M0 582L21.5 578C43 574 86 566 128.8 560C171.7 554 214.3 550 257.2 547.8C300 545.7 343 545.3 385.8 546.8C428.7 548.3 471.3 551.7 514.2 552.7C557 553.7 600 552.3 642.8 554.8C685.7 557.3 728.3 563.7 771.2 563.7C814 563.7 857 557.3 878.5 554.2L900 551L900 601L878.5 601C857 601 814 601 771.2 601C728.3 601 685.7 601 642.8 601C600 601 557 601 514.2 601C471.3 601 428.7 601 385.8 601C343 601 300 601 257.2 601C214.3 601 171.7 601 128.8 601C86 601 43 601 21.5 601L0 601Z" fill="#2446c7"></path></svg>